<?xml version="1.0" standalone="yes"?>

<svg version="1.1" viewBox="0.0 0.0 720.0 540.0" fill="none" stroke="none" stroke-linecap="square" stroke-miterlimit="10" xmlns="http://www.w3.org/2000/svg" xmlns:xlink="http://www.w3.org/1999/xlink"><clipPath id="p.0"><path d="m0 0l720.0 0l0 540.0l-720.0 0l0 -540.0z" clip-rule="nonzero"></path></clipPath><g clip-path="url(#p.0)"><path fill="#000000" fill-opacity="0.0" d="m0 0l720.0 0l0 540.0l-720.0 0z" fill-rule="evenodd"></path><path fill="#000000" fill-opacity="0.0" d="m308.25165 87.28871l103.49606 0l0 62.992126l-103.49606 0z" fill-rule="evenodd"></path><path stroke="#000000" stroke-width="2.0" stroke-linejoin="round" stroke-linecap="butt" d="m308.25165 87.28871l103.49606 0l0 62.992126l-103.49606 0z" fill-rule="evenodd"></path><path fill="#000000" d="m337.48047 125.70477l0 -13.515625l4.625 0q2.296875 0 3.484375 0.921875q1.203125 0.921875 1.203125 2.734375q0 0.9375 -0.5 1.6875q-0.5 0.734375 -1.46875 1.140625q1.09375 0.296875 1.6875 1.125q0.609375 0.8125 0.609375 1.96875q0 1.890625 -1.21875 2.921875q-1.21875 1.015625 -3.5 1.015625l-4.921875 0zm2.34375 -6.09375l0 4.21875l2.609375 0q1.109375 0 1.71875 -0.546875q0.625 -0.546875 0.625 -1.515625q0 -2.109375 -2.15625 -2.15625l-2.796875 0zm0 -1.734375l2.296875 0q1.09375 0 1.703125 -0.484375q0.625 -0.5 0.625 -1.40625q0 -1.0 -0.578125 -1.4375q-0.5625 -0.453125 -1.765625 -0.453125l-2.28125 0l0 3.78125zm15.285095 6.84375q-0.984375 1.171875 -2.8125 1.171875q-1.640625 0 -2.484375 -0.953125q-0.828125 -0.953125 -0.828125 -2.765625l0 -6.5l2.25 0l0 6.46875q0 1.90625 1.578125 1.90625q1.65625 0 2.21875 -1.171875l0 -7.203125l2.265625 0l0 10.03125l-2.125 0l-0.0625 -0.984375zm7.8041077 -2.25l2.03125 -6.796875l2.40625 0l-3.984375 11.546875q-0.921875 2.53125 -3.125 2.53125q-0.484375 0 -1.078125 -0.15625l0 -1.75l0.421875 0.03125q0.859375 0 1.28125 -0.3125q0.4375 -0.3125 0.6875 -1.046875l0.328125 -0.859375l-3.53125 -9.984375l2.4375 0l2.125 6.796875zm9.988403 3.421875q-2.140625 0 -3.484375 -1.34375q-1.328125 -1.359375 -1.328125 -3.609375l0 -0.265625q0 -1.515625 0.578125 -2.6875q0.59375 -1.1875 1.640625 -1.84375q1.046875 -0.65625 2.328125 -0.65625q2.046875 0 3.171875 1.3125q1.125 1.296875 1.125 3.6875l0 0.90625l-6.5625 0q0.09375 1.25 0.828125 1.984375q0.734375 0.71875 1.828125 0.71875q1.546875 0 2.53125 -1.25l1.203125 1.15625q-0.59375 0.890625 -1.609375 1.390625q-1.0 0.5 -2.25 0.5zm-0.265625 -8.609375q-0.9375 0 -1.515625 0.65625q-0.5625 0.65625 -0.71875 1.8125l4.296875 0l0 -0.171875q-0.078125 -1.125 -0.609375 -1.703125q-0.515625 -0.59375 -1.453125 -0.59375zm11.105103 0.4375q-0.4375 -0.0625 -0.90625 -0.0625q-1.5625 0 -2.09375 1.1875l0 6.859375l-2.25 0l0 -10.03125l2.140625 0l0.0625 1.109375q0.8125 -1.296875 2.265625 -1.296875q0.484375 0 0.796875 0.125l-0.015625 2.109375z" fill-rule="nonzero"></path><path fill="#000000" fill-opacity="0.0" d="m308.25165 383.82416l103.49606 0l0 62.992126l-103.49606 0z" fill-rule="evenodd"></path><path stroke="#000000" stroke-width="2.0" stroke-linejoin="round" stroke-linecap="butt" d="m308.25165 383.82416l103.49606 0l0 62.992126l-103.49606 0z" fill-rule="evenodd"></path><path fill="#000000" d="m344.75247 418.75583q0 -0.890625 -0.625 -1.359375q-0.625 -0.484375 -2.265625 -0.96875q-1.625 -0.5 -2.59375 -1.109375q-1.84375 -1.15625 -1.84375 -3.03125q0 -1.625 1.328125 -2.671875q1.328125 -1.0625 3.453125 -1.0625q1.40625 0 2.515625 0.515625q1.109375 0.515625 1.734375 1.484375q0.625 0.953125 0.625 2.125l-2.328125 0q0 -1.0625 -0.671875 -1.65625q-0.65625 -0.59375 -1.890625 -0.59375q-1.15625 0 -1.796875 0.484375q-0.625 0.484375 -0.625 1.375q0 0.734375 0.6875 1.234375q0.6875 0.5 2.265625 0.96875q1.578125 0.46875 2.53125 1.0625q0.953125 0.59375 1.390625 1.375q0.453125 0.78125 0.453125 1.8125q0 1.6875 -1.296875 2.6875q-1.296875 1.0 -3.515625 1.0q-1.453125 0 -2.6875 -0.546875q-1.234375 -0.546875 -1.921875 -1.5q-0.671875 -0.953125 -0.671875 -2.21875l2.34375 0q0 1.140625 0.765625 1.78125q0.765625 0.625 2.171875 0.625q1.234375 0 1.84375 -0.484375q0.625 -0.5 0.625 -1.328125zm8.399963 3.671875q-2.140625 0 -3.484375 -1.34375q-1.328125 -1.359375 -1.328125 -3.609375l0 -0.265625q0 -1.515625 0.578125 -2.6875q0.59375 -1.1875 1.640625 -1.84375q1.046875 -0.65625 2.328125 -0.65625q2.046875 0 3.171875 1.3125q1.125 1.296875 1.125 3.6875l0 0.90625l-6.5625 0q0.09375 1.25 0.828125 1.984375q0.734375 0.71875 1.828125 0.71875q1.546875 0 2.53125 -1.25l1.203125 1.15625q-0.59375 0.890625 -1.609375 1.390625q-1.0 0.5 -2.25 0.5zm-0.265625 -8.609375q-0.9375 0 -1.515625 0.65625q-0.5625 0.65625 -0.71875 1.8125l4.296875 0l0 -0.171875q-0.078125 -1.125 -0.609375 -1.703125q-0.515625 -0.59375 -1.453125 -0.59375zm8.245728 8.421875l-2.25 0l0 -14.25l2.25 0l0 14.25zm4.7642517 0l-2.25 0l0 -14.25l2.25 0l0 14.25zm6.795532 0.1875q-2.140625 0 -3.484375 -1.34375q-1.328125 -1.359375 -1.328125 -3.609375l0 -0.265625q0 -1.515625 0.578125 -2.6875q0.59375 -1.1875 1.640625 -1.84375q1.046875 -0.65625 2.328125 -0.65625q2.046875 0 3.171875 1.3125q1.125 1.296875 1.125 3.6875l0 0.90625l-6.5625 0q0.09375 1.25 0.828125 1.984375q0.734375 0.71875 1.828125 0.71875q1.546875 0 2.53125 -1.25l1.203125 1.15625q-0.59375 0.890625 -1.609375 1.390625q-1.0 0.5 -2.25 0.5zm-0.265625 -8.609375q-0.9375 0 -1.515625 0.65625q-0.5625 0.65625 -0.71875 1.8125l4.296875 0l0 -0.171875q-0.078125 -1.125 -0.609375 -1.703125q-0.515625 -0.59375 -1.453125 -0.59375zm11.105072 0.4375q-0.4375 -0.0625 -0.90625 -0.0625q-1.5625 0 -2.09375 1.1875l0 6.859375l-2.25 0l0 -10.03125l2.140625 0l0.0625 1.109375q0.8125 -1.296875 2.265625 -1.296875q0.484375 0 0.796875 0.125l-0.015625 2.109375z" fill-rule="nonzero"></path><path fill="#000000" fill-opacity="0.0" d="m117.49606 200.55118l485.0079 0l0 129.00787l-485.0079 0z" fill-rule="evenodd"></path><path stroke="#000000" stroke-width="2.0" stroke-linejoin="round" stroke-linecap="butt" d="m117.49606 200.55118l485.0079 0l0 129.00787l-485.0079 0z" fill-rule="evenodd"></path><path fill="#000000" fill-opacity="0.0" d="m359.99966 150.28084l0 85.25984" fill-rule="evenodd"></path><path stroke="#000000" stroke-width="2.0" stroke-linejoin="round" stroke-linecap="butt" d="m359.99966 150.28084l0 73.25984" fill-rule="evenodd"></path><path fill="#000000" stroke="#000000" stroke-width="2.0" stroke-linecap="butt" d="m356.6962 223.54068l3.3034668 9.076202l3.3034668 -9.076202z" fill-rule="evenodd"></path><path fill="#000000" fill-opacity="0.0" d="m142.25165 235.55511l103.49605 0l0 62.992126l-103.49605 0z" fill-rule="evenodd"></path><path stroke="#000000" stroke-width="2.0" stroke-linejoin="round" stroke-linecap="butt" d="m142.25165 235.55511l103.49605 0l0 62.992126l-103.49605 0z" fill-rule="evenodd"></path><path fill="#000000" d="m180.02518 262.9712l0 -13.51564l3.984375 0q1.796875 0 3.171875 0.8125q1.390625 0.796875 2.15625 2.265625q0.765625 1.453125 0.765625 3.34375l0 0.68751526q0 1.921875 -0.765625 3.375q-0.765625 1.453125 -2.1875 2.25q-1.40625 0.78125 -3.234375 0.78125l-3.890625 0zm2.34375 -11.60939l0 9.73439l1.53125 0q1.84375 0 2.828125 -1.15625q1.0 -1.15625 1.015625 -3.3125l0 -0.75001526q0 -2.203125 -0.953125 -3.359375q-0.953125 -1.15625 -2.78125 -1.15625l-1.640625 0zm12.313507 11.60939l-2.328125 0l0 -13.51564l2.328125 0l0 13.51564zm13.515289 0l-2.359375 0l-6.015625 -9.57814l0 9.57814l-2.34375 0l0 -13.51564l2.34375 0l6.046875 9.625015l0 -9.625015l2.328125 0l0 13.51564z" fill-rule="nonzero"></path><path fill="#000000" d="m166.10994 279.76807l-2.625 0l0 5.203125l-2.34375 0l0 -13.515625l4.75 0q2.34375 0 3.609375 1.0625q1.265625 1.046875 1.265625 3.03125q0 1.34375 -0.65625 2.265625q-0.65625 0.90625 -1.8125 1.40625l3.03125 5.625l0 0.125l-2.515625 0l-2.703125 -5.203125zm-2.625 -1.890625l2.40625 0q1.1875 0 1.859375 -0.59375q0.671875 -0.59375 0.671875 -1.640625q0 -1.078125 -0.625 -1.671875q-0.609375 -0.59375 -1.828125 -0.609375l-2.484375 0l0 4.515625zm13.501312 7.28125q-2.140625 0 -3.484375 -1.34375q-1.328125 -1.359375 -1.328125 -3.609375l0 -0.265625q0 -1.515625 0.578125 -2.6875q0.59375 -1.1875 1.640625 -1.84375q1.046875 -0.65625 2.328125 -0.65625q2.046875 0 3.171875 1.3125q1.125 1.296875 1.125 3.6875l0 0.90625l-6.5625 0q0.09375 1.25 0.828125 1.984375q0.734375 0.71875 1.828125 0.71875q1.546875 0 2.53125 -1.25l1.203125 1.15625q-0.59375 0.890625 -1.609375 1.390625q-1.0 0.5 -2.25 0.5zm-0.265625 -8.609375q-0.9375 0 -1.515625 0.65625q-0.5625 0.65625 -0.71875 1.8125l4.296875 0l0 -0.171875q-0.078125 -1.125 -0.609375 -1.703125q-0.515625 -0.59375 -1.453125 -0.59375zm5.4644623 3.328125q0 -2.34375 1.09375 -3.734375q1.09375 -1.390625 2.921875 -1.390625q1.71875 0 2.703125 1.1875l0.09375 -1.0l2.03125 0l0 9.71875q0 1.984375 -1.234375 3.125q-1.21875 1.140625 -3.3125 1.140625q-1.09375 0 -2.15625 -0.46875q-1.046875 -0.453125 -1.59375 -1.1875l1.0625 -1.359375q1.046875 1.234375 2.5625 1.234375q1.125 0 1.765625 -0.609375q0.65625 -0.609375 0.65625 -1.78125l0 -0.6875q-0.96875 1.09375 -2.59375 1.09375q-1.765625 0 -2.890625 -1.390625q-1.109375 -1.40625 -1.109375 -3.890625zm2.234375 0.1875q0 1.515625 0.609375 2.390625q0.625 0.859375 1.71875 0.859375q1.375 0 2.03125 -1.171875l0 -4.40625q-0.640625 -1.140625 -2.0 -1.140625q-1.125 0 -1.75 0.890625q-0.609375 0.875 -0.609375 2.578125zm11.123001 4.90625l-2.25 0l0 -10.03125l2.25 0l0 10.03125zm-2.390625 -12.640625q0 -0.53125 0.328125 -0.859375q0.328125 -0.34375 0.9375 -0.34375q0.625 0 0.953125 0.34375q0.34375 0.328125 0.34375 0.859375q0 0.5 -0.34375 0.84375q-0.328125 0.34375 -0.953125 0.34375q-0.609375 0 -0.9375 -0.34375q-0.328125 -0.34375 -0.328125 -0.84375zm10.389267 9.90625q0 -0.59375 -0.5 -0.90625q-0.484375 -0.328125 -1.640625 -0.5625q-1.15625 -0.234375 -1.921875 -0.609375q-1.6875 -0.8125 -1.6875 -2.375q0 -1.296875 1.09375 -2.15625q1.09375 -0.875 2.78125 -0.875q1.796875 0 2.90625 0.890625q1.109375 0.890625 1.109375 2.3125l-2.25 0q0 -0.65625 -0.484375 -1.078125q-0.484375 -0.4375 -1.28125 -0.4375q-0.734375 0 -1.203125 0.34375q-0.46875 0.34375 -0.46875 0.90625q0 0.53125 0.421875 0.828125q0.4375 0.28125 1.765625 0.578125q1.328125 0.28125 2.078125 0.6875q0.765625 0.40625 1.125 0.96875q0.375 0.5625 0.375 1.375q0 1.34375 -1.125 2.1875q-1.125 0.84375 -2.9375 0.84375q-1.234375 0 -2.203125 -0.4375q-0.96875 -0.453125 -1.5 -1.234375q-0.53125 -0.78125 -0.53125 -1.671875l2.1875 0q0.046875 0.796875 0.59375 1.234375q0.5625 0.421875 1.484375 0.421875q0.890625 0 1.34375 -0.34375q0.46875 -0.34375 0.46875 -0.890625zm6.8318634 -9.75l0 2.453125l1.765625 0l0 1.65625l-1.765625 0l0 5.609375q0 0.578125 0.21875 0.84375q0.234375 0.25 0.8125 0.25q0.390625 0 0.796875 -0.09375l0 1.734375q-0.78125 0.21875 -1.484375 0.21875q-2.609375 0 -2.609375 -2.875l0 -5.6875l-1.640625 0l0 -1.65625l1.640625 0l0 -2.453125l2.265625 0zm8.6254425 4.5q-0.4375 -0.0625 -0.90625 -0.0625q-1.5625 0 -2.09375 1.1875l0 6.859375l-2.25 0l0 -10.03125l2.140625 0l0.0625 1.109375q0.8125 -1.296875 2.265625 -1.296875q0.484375 0 0.796875 0.125l-0.015625 2.109375zm4.824463 4.75l2.03125 -6.796875l2.40625 0l-3.984375 11.546875q-0.921875 2.53125 -3.125 2.53125q-0.484375 0 -1.078125 -0.15625l0 -1.75l0.421875 0.03125q0.859375 0 1.28125 -0.3125q0.4375 -0.3125 0.6875 -1.046875l0.328125 -0.859375l-3.53125 -9.984375l2.4375 0l2.125 6.796875z" fill-rule="nonzero"></path><path fill="#000000" fill-opacity="0.0" d="m308.25165 235.55511l103.49606 0l0 62.992126l-103.49606 0z" fill-rule="evenodd"></path><path stroke="#000000" stroke-width="2.0" stroke-linejoin="round" stroke-linecap="butt" d="m308.25165 235.55511l103.49606 0l0 62.992126l-103.49606 0z" fill-rule="evenodd"></path><path fill="#000000" d="m334.95233 260.45557l3.890625 10.359375l3.890625 -10.359375l3.03125 0l0 13.515625l-2.34375 0l0 -4.453125l0.234375 -5.953125l-3.984375 10.40625l-1.6875 0l-3.96875 -10.40625l0.234375 5.953125l0 4.453125l-2.34375 0l0 -13.515625l3.046875 0zm19.067688 13.515625q-0.15625 -0.28125 -0.265625 -0.9375q-1.078125 1.125 -2.625 1.125q-1.515625 0 -2.484375 -0.859375q-0.953125 -0.875 -0.953125 -2.140625q0 -1.609375 1.1875 -2.453125q1.203125 -0.859375 3.421875 -0.859375l1.375 0l0 -0.671875q0 -0.78125 -0.4375 -1.234375q-0.421875 -0.46875 -1.3125 -0.46875q-0.78125 0 -1.28125 0.390625q-0.484375 0.375 -0.484375 0.96875l-2.25 0q0 -0.828125 0.546875 -1.546875q0.546875 -0.71875 1.484375 -1.125q0.953125 -0.40625 2.109375 -0.40625q1.765625 0 2.8125 0.890625q1.046875 0.875 1.078125 2.484375l0 4.53125q0 1.34375 0.375 2.15625l0 0.15625l-2.296875 0zm-2.484375 -1.625q0.671875 0 1.25 -0.3125q0.59375 -0.328125 0.890625 -0.890625l0 -1.890625l-1.203125 0q-1.265625 0 -1.890625 0.4375q-0.625 0.4375 -0.625 1.234375q0 0.65625 0.421875 1.046875q0.4375 0.375 1.15625 0.375zm11.827698 -6.359375q-0.4375 -0.0625 -0.90625 -0.0625q-1.5625 0 -2.09375 1.1875l0 6.859375l-2.25 0l0 -10.03125l2.140625 0l0.0625 1.109375q0.8125 -1.296875 2.265625 -1.296875q0.484375 0 0.796875 0.125l-0.015625 2.109375zm4.574463 3.671875l-1.0 1.03125l0 3.28125l-2.265625 0l0 -14.25l2.265625 0l0 8.21875l0.703125 -0.875l2.765625 -3.125l2.71875 0l-3.734375 4.171875l4.125 5.859375l-2.609375 0l-2.96875 -4.3125zm10.894318 4.5q-2.140625 0 -3.484375 -1.34375q-1.328125 -1.359375 -1.328125 -3.609375l0 -0.265625q0 -1.515625 0.578125 -2.6875q0.59375 -1.1875 1.640625 -1.84375q1.046875 -0.65625 2.328125 -0.65625q2.046875 0 3.171875 1.3125q1.125 1.296875 1.125 3.6875l0 0.90625l-6.5625 0q0.09375 1.25 0.828125 1.984375q0.734375 0.71875 1.828125 0.71875q1.546875 0 2.53125 -1.25l1.203125 1.15625q-0.59375 0.890625 -1.609375 1.390625q-1.0 0.5 -2.25 0.5zm-0.265625 -8.609375q-0.9375 0 -1.515625 0.65625q-0.5625 0.65625 -0.71875 1.8125l4.296875 0l0 -0.171875q-0.078125 -1.125 -0.609375 -1.703125q-0.515625 -0.59375 -1.453125 -0.59375zm8.683197 -4.0625l0 2.453125l1.765625 0l0 1.65625l-1.765625 0l0 5.609375q0 0.578125 0.21875 0.84375q0.234375 0.25 0.8125 0.25q0.390625 0 0.796875 -0.09375l0 1.734375q-0.78125 0.21875 -1.484375 0.21875q-2.609375 0 -2.609375 -2.875l0 -5.6875l-1.640625 0l0 -1.65625l1.640625 0l0 -2.453125l2.265625 0z" fill-rule="nonzero"></path><path fill="#000000" fill-opacity="0.0" d="m474.25165 235.55511l103.49603 0l0 62.992126l-103.49603 0z" fill-rule="evenodd"></path><path stroke="#000000" stroke-width="2.0" stroke-linejoin="round" stroke-linecap="butt" d="m474.25165 235.55511l103.49603 0l0 62.992126l-103.49603 0z" fill-rule="evenodd"></path><path fill="#000000" d="m496.73294 268.95557l0 5.015625l-2.34375 0l0 -13.515625l5.171875 0q2.25 0 3.578125 1.1875q1.34375 1.171875 1.34375 3.109375q0 1.984375 -1.3125 3.09375q-1.296875 1.109375 -3.640625 1.109375l-2.796875 0zm0 -1.890625l2.828125 0q1.25 0 1.90625 -0.578125q0.65625 -0.59375 0.65625 -1.703125q0 -1.09375 -0.671875 -1.75q-0.65625 -0.65625 -1.828125 -0.671875l-2.890625 0l0 4.703125zm14.611816 -1.078125q-0.4375 -0.0625 -0.90625 -0.0625q-1.5625 0 -2.09375 1.1875l0 6.859375l-2.25 0l0 -10.03125l2.140625 0l0.0625 1.109375q0.8125 -1.296875 2.265625 -1.296875q0.484375 0 0.796875 0.125l-0.015625 2.109375zm0.8869934 2.875q0 -1.484375 0.578125 -2.65625q0.59375 -1.1875 1.640625 -1.8125q1.0625 -0.640625 2.4375 -0.640625q2.03125 0 3.296875 1.3125q1.265625 1.296875 1.375 3.453125l0 0.53125q0 1.484375 -0.578125 2.65625q-0.5625 1.171875 -1.625 1.8125q-1.0625 0.640625 -2.453125 0.640625q-2.125 0 -3.40625 -1.40625q-1.265625 -1.421875 -1.265625 -3.78125l0 -0.109375zm2.25 0.1875q0 1.546875 0.640625 2.4375q0.640625 0.875 1.78125 0.875q1.140625 0 1.78125 -0.890625q0.640625 -0.890625 0.640625 -2.609375q0 -1.53125 -0.65625 -2.421875q-0.65625 -0.890625 -1.78125 -0.890625q-1.109375 0 -1.765625 0.890625q-0.640625 0.875 -0.640625 2.609375zm8.371643 -0.171875q0 -2.3125 1.078125 -3.71875q1.078125 -1.40625 2.875 -1.40625q1.609375 0 2.59375 1.109375l0 -5.140625l2.25 0l0 14.25l-2.046875 0l-0.109375 -1.046875q-1.015625 1.234375 -2.703125 1.234375q-1.765625 0 -2.859375 -1.421875q-1.078125 -1.421875 -1.078125 -3.859375zm2.25 0.1875q0 1.53125 0.59375 2.390625q0.59375 0.859375 1.671875 0.859375q1.390625 0 2.03125 -1.234375l0 -4.28125q-0.625 -1.203125 -2.015625 -1.203125q-1.09375 0 -1.6875 0.875q-0.59375 0.859375 -0.59375 2.59375zm14.780579 3.921875q-0.984375 1.171875 -2.8125 1.171875q-1.640625 0 -2.484375 -0.953125q-0.828125 -0.953125 -0.828125 -2.765625l0 -6.5l2.25 0l0 6.46875q0 1.90625 1.578125 1.90625q1.65625 0 2.21875 -1.171875l0 -7.203125l2.265625 0l0 10.03125l-2.125 0l-0.0625 -0.984375zm8.413513 -0.625q0.84375 0 1.390625 -0.484375q0.5625 -0.5 0.609375 -1.234375l2.109375 0q-0.03125 0.9375 -0.578125 1.75q-0.546875 0.8125 -1.484375 1.296875q-0.9375 0.46875 -2.015625 0.46875q-2.109375 0 -3.34375 -1.359375q-1.234375 -1.375 -1.234375 -3.765625l0 -0.234375q0 -2.296875 1.21875 -3.671875q1.234375 -1.375 3.34375 -1.375q1.796875 0 2.921875 1.046875q1.125 1.03125 1.171875 2.734375l-2.109375 0q-0.046875 -0.859375 -0.609375 -1.421875q-0.546875 -0.5625 -1.390625 -0.5625q-1.09375 0 -1.6875 0.796875q-0.59375 0.796875 -0.609375 2.40625l0 0.359375q0 1.640625 0.59375 2.453125q0.59375 0.796875 1.703125 0.796875zm8.468506 -10.875l0 2.453125l1.765625 0l0 1.65625l-1.765625 0l0 5.609375q0 0.578125 0.21875 0.84375q0.234375 0.25 0.8125 0.25q0.390625 0 0.796875 -0.09375l0 1.734375q-0.78125 0.21875 -1.484375 0.21875q-2.609375 0 -2.609375 -2.875l0 -5.6875l-1.640625 0l0 -1.65625l1.640625 0l0 -2.453125l2.265625 0z" fill-rule="nonzero"></path><path fill="#000000" fill-opacity="0.0" d="m411.7477 267.05118l62.519684 0" fill-rule="evenodd"></path><path stroke="#000000" stroke-width="2.0" stroke-linejoin="round" stroke-linecap="butt" d="m423.7477 267.05118l38.519684 0" fill-rule="evenodd"></path><path fill="#000000" stroke="#000000" stroke-width="2.0" stroke-linecap="butt" d="m423.7477 263.7477l-9.076202 3.3034668l9.076202 3.3034668z" fill-rule="evenodd"></path><path fill="#000000" stroke="#000000" stroke-width="2.0" stroke-linecap="butt" d="m462.2674 270.35464l9.076202 -3.3034668l-9.076202 -3.3034668z" fill-rule="evenodd"></path><path fill="#000000" fill-opacity="0.0" d="m245.7477 267.05118l62.5197 0" fill-rule="evenodd"></path><path stroke="#000000" stroke-width="2.0" stroke-linejoin="round" stroke-linecap="butt" d="m257.7477 267.05118l38.519684 0" fill-rule="evenodd"></path><path fill="#000000" stroke="#000000" stroke-width="2.0" stroke-linecap="butt" d="m257.7477 263.7477l-9.076202 3.3034668l9.076202 3.3034668z" fill-rule="evenodd"></path><path fill="#000000" stroke="#000000" stroke-width="2.0" stroke-linecap="butt" d="m296.2674 270.35464l9.076202 -3.3034668l-9.076202 -3.3034668z" fill-rule="evenodd"></path><path fill="#000000" fill-opacity="0.0" d="m359.99966 298.54724l0 85.29135" fill-rule="evenodd"></path><path stroke="#000000" stroke-width="2.0" stroke-linejoin="round" stroke-linecap="butt" d="m359.99966 310.54724l0 61.29135" fill-rule="evenodd"></path><path fill="#000000" stroke="#000000" stroke-width="2.0" stroke-linecap="butt" d="m363.30313 310.54724l-3.3034668 -9.076202l-3.3034668 9.076202z" fill-rule="evenodd"></path><path fill="#000000" stroke="#000000" stroke-width="2.0" stroke-linecap="butt" d="m356.6962 371.8386l3.3034668 9.076172l3.3034668 -9.076172z" fill-rule="evenodd"></path><path fill="#000000" fill-opacity="0.0" d="m525.9997 298.54724l-165.98428 85.29135" fill-rule="evenodd"></path><path stroke="#000000" stroke-width="2.0" stroke-linejoin="round" stroke-linecap="butt" d="m515.3263 304.03177l-155.31088 79.80682" fill-rule="evenodd"></path><path fill="#000000" stroke="#000000" stroke-width="2.0" stroke-linecap="butt" d="m516.8362 306.97l6.5629272 -7.0864563l-9.582581 1.2099609z" fill-rule="evenodd"></path><path fill="#000000" fill-opacity="0.0" d="m193.99966 298.54724l166.01575 85.29135" fill-rule="evenodd"></path><path stroke="#000000" stroke-width="2.0" stroke-linejoin="round" stroke-linecap="butt" d="m204.67343 304.03094l155.34198 79.80765" fill-rule="evenodd"></path><path fill="#000000" stroke="#000000" stroke-width="2.0" stroke-linecap="butt" d="m206.18303 301.09256l-9.582687 -1.209198l6.563492 7.0859375z" fill-rule="evenodd"></path><path fill="#000000" fill-opacity="0.0" d="m446.99213 159.5433l158.01575 0l0 41.007874l-158.01575 0z" fill-rule="evenodd"></path><path fill="#000000" d="m470.12982 180.63518l-1.53125 1.609375l0 4.21875l-2.34375 0l0 -13.515625l2.34375 0l0 6.34375l1.296875 -1.609375l3.953125 -4.734375l2.84375 0l-5.015625 5.984375l5.296875 7.53125l-2.78125 0l-4.0625 -5.828125zm10.057251 5.828125l-2.25 0l0 -10.03125l2.25 0l0 10.03125zm-2.390625 -12.640625q0 -0.53125 0.328125 -0.859375q0.328125 -0.34375 0.9375 -0.34375q0.625 0 0.953125 0.34375q0.34375 0.328125 0.34375 0.859375q0 0.5 -0.34375 0.84375q-0.328125 0.34375 -0.953125 0.34375q-0.609375 0 -0.9375 -0.34375q-0.328125 -0.34375 -0.328125 -0.84375zm4.3423767 7.53125q0 -1.484375 0.578125 -2.65625q0.59375 -1.1875 1.640625 -1.8125q1.0625 -0.640625 2.4375 -0.640625q2.03125 0 3.296875 1.3125q1.265625 1.296875 1.375 3.453125l0 0.53125q0 1.484375 -0.578125 2.65625q-0.5625 1.171875 -1.625 1.8125q-1.0625 0.640625 -2.453125 0.640625q-2.125 0 -3.40625 -1.40625q-1.265625 -1.421875 -1.265625 -3.78125l0 -0.109375zm2.25 0.1875q0 1.546875 0.640625 2.4375q0.640625 0.875 1.78125 0.875q1.140625 0 1.78125 -0.890625q0.640625 -0.890625 0.640625 -2.609375q0 -1.53125 -0.65625 -2.421875q-0.65625 -0.890625 -1.78125 -0.890625q-1.109375 0 -1.765625 0.890625q-0.640625 0.875 -0.640625 2.609375zm14.418549 2.1875q0 -0.59375 -0.5 -0.90625q-0.484375 -0.328125 -1.640625 -0.5625q-1.15625 -0.234375 -1.921875 -0.609375q-1.6875 -0.8125 -1.6875 -2.375q0 -1.296875 1.09375 -2.15625q1.09375 -0.875 2.78125 -0.875q1.796875 0 2.90625 0.890625q1.109375 0.890625 1.109375 2.3125l-2.25 0q0 -0.65625 -0.484375 -1.078125q-0.484375 -0.4375 -1.28125 -0.4375q-0.734375 0 -1.203125 0.34375q-0.46875 0.34375 -0.46875 0.90625q0 0.53125 0.421875 0.828125q0.4375 0.28125 1.765625 0.578125q1.328125 0.28125 2.078125 0.6875q0.765625 0.40625 1.125 0.96875q0.375 0.5625 0.375 1.375q0 1.34375 -1.125 2.1875q-1.125 0.84375 -2.9375 0.84375q-1.234375 0 -2.203125 -0.4375q-0.96875 -0.453125 -1.5 -1.234375q-0.53125 -0.78125 -0.53125 -1.671875l2.1875 0q0.046875 0.796875 0.59375 1.234375q0.5625 0.421875 1.484375 0.421875q0.890625 0 1.34375 -0.34375q0.46875 -0.34375 0.46875 -0.890625zm7.2693787 -1.578125l-1.0 1.03125l0 3.28125l-2.265625 0l0 -14.25l2.265625 0l0 8.21875l0.703125 -0.875l2.765625 -3.125l2.71875 0l-3.734375 4.171875l4.125 5.859375l-2.609375 0l-2.96875 -4.3125zm13.680756 -0.703125l0 5.015625l-2.34375 0l0 -13.515625l5.171875 0q2.25 0 3.578125 1.1875q1.34375 1.171875 1.34375 3.109375q0 1.984375 -1.3125 3.09375q-1.296875 1.109375 -3.640625 1.109375l-2.796875 0zm0 -1.890625l2.828125 0q1.25 0 1.90625 -0.578125q0.65625 -0.59375 0.65625 -1.703125q0 -1.09375 -0.671875 -1.75q-0.65625 -0.65625 -1.828125 -0.671875l-2.890625 0l0 4.703125zm14.611816 -1.078125q-0.4375 -0.0625 -0.90625 -0.0625q-1.5625 0 -2.09375 1.1875l0 6.859375l-2.25 0l0 -10.03125l2.140625 0l0.0625 1.109375q0.8125 -1.296875 2.265625 -1.296875q0.484375 0 0.796875 0.125l-0.015625 2.109375zm0.8869629 2.875q0 -1.484375 0.578125 -2.65625q0.59375 -1.1875 1.640625 -1.8125q1.0625 -0.640625 2.4375 -0.640625q2.03125 0 3.296875 1.3125q1.265625 1.296875 1.375 3.453125l0 0.53125q0 1.484375 -0.578125 2.65625q-0.5625 1.171875 -1.625 1.8125q-1.0625 0.640625 -2.453125 0.640625q-2.125 0 -3.40625 -1.40625q-1.265625 -1.421875 -1.265625 -3.78125l0 -0.109375zm2.25 0.1875q0 1.546875 0.640625 2.4375q0.640625 0.875 1.78125 0.875q1.140625 0 1.78125 -0.890625q0.640625 -0.890625 0.640625 -2.609375q0 -1.53125 -0.65625 -2.421875q-0.65625 -0.890625 -1.78125 -0.890625q-1.109375 0 -1.765625 0.890625q-0.640625 0.875 -0.640625 2.609375zm11.621704 -7.5625l0 2.453125l1.765625 0l0 1.65625l-1.765625 0l0 5.609375q0 0.578125 0.21875 0.84375q0.234375 0.25 0.8125 0.25q0.390625 0 0.796875 -0.09375l0 1.734375q-0.78125 0.21875 -1.484375 0.21875q-2.609375 0 -2.609375 -2.875l0 -5.6875l-1.640625 0l0 -1.65625l1.640625 0l0 -2.453125l2.265625 0zm2.9535522 7.375q0 -1.484375 0.578125 -2.65625q0.59375 -1.1875 1.640625 -1.8125q1.0625 -0.640625 2.4375 -0.640625q2.03125 0 3.296875 1.3125q1.265625 1.296875 1.375 3.453125l0 0.53125q0 1.484375 -0.578125 2.65625q-0.5625 1.171875 -1.625 1.8125q-1.0625 0.640625 -2.453125 0.640625q-2.125 0 -3.40625 -1.40625q-1.265625 -1.421875 -1.265625 -3.78125l0 -0.109375zm2.25 0.1875q0 1.546875 0.640625 2.4375q0.640625 0.875 1.78125 0.875q1.140625 0 1.78125 -0.890625q0.640625 -0.890625 0.640625 -2.609375q0 -1.53125 -0.65625 -2.421875q-0.65625 -0.890625 -1.78125 -0.890625q-1.109375 0 -1.765625 0.890625q-0.640625 0.875 -0.640625 2.609375zm12.918579 3.3125q0.84375 0 1.390625 -0.484375q0.5625 -0.5 0.609375 -1.234375l2.109375 0q-0.03125 0.9375 -0.578125 1.75q-0.546875 0.8125 -1.484375 1.296875q-0.9375 0.46875 -2.015625 0.46875q-2.109375 0 -3.34375 -1.359375q-1.234375 -1.375 -1.234375 -3.765625l0 -0.234375q0 -2.296875 1.21875 -3.671875q1.234375 -1.375 3.34375 -1.375q1.796875 0 2.921875 1.046875q1.125 1.03125 1.171875 2.734375l-2.109375 0q-0.046875 -0.859375 -0.609375 -1.421875q-0.546875 -0.5625 -1.390625 -0.5625q-1.09375 0 -1.6875 0.796875q-0.59375 0.796875 -0.609375 2.40625l0 0.359375q0 1.640625 0.59375 2.453125q0.59375 0.796875 1.703125 0.796875zm5.218506 -3.5q0 -1.484375 0.578125 -2.65625q0.59375 -1.1875 1.640625 -1.8125q1.062439 -0.640625 2.437439 -0.640625q2.03125 0 3.296875 1.3125q1.265625 1.296875 1.375 3.453125l0 0.53125q0 1.484375 -0.578125 2.65625q-0.5625 1.171875 -1.625 1.8125q-1.0625 0.640625 -2.453125 0.640625q-2.125 0 -3.406189 -1.40625q-1.265625 -1.421875 -1.265625 -3.78125l0 -0.109375zm2.25 0.1875q0 1.546875 0.64056396 2.4375q0.640625 0.875 1.78125 0.875q1.140625 0 1.78125 -0.890625q0.640625 -0.890625 0.640625 -2.609375q0 -1.53125 -0.65625 -2.421875q-0.65625 -0.890625 -1.78125 -0.890625q-1.109375 0 -1.765625 0.890625q-0.64056396 0.875 -0.64056396 2.609375zm11.184143 4.921875l-2.25 0l0 -14.25l2.25 0l0 14.25z" fill-rule="nonzero"></path></g></svg>

